Coordinates
version=1
nRows=5
nColumns=42
inDegrees=yes

Units are S.I. units (second, meters, Newtons, ...)
If the header above contains a line with 'inDegrees', this indicates whether rotational values are in degrees (yes) or radians (no).

endheader
time	pelvis_tilt	pelvis_list	pelvis_rotation	pelvis_tx	pelvis_ty	pelvis_tz	hip_flexion_r	hip_adduction_r	hip_rotation_r	knee_angle_r	knee_adduction_r	knee_angle_r_beta	ankle_angle_r	subtalar_angle_r	mtp_angle_r	hip_flexion_l	hip_adduction_l	hip_rotation_l	knee_angle_l	knee_adduction_l	knee_angle_l_beta	ankle_angle_l	subtalar_angle_l	mtp_angle_l	lumbar_extension	lumbar_bending	lumbar_rotation	arm_flex_r	arm_add_r	arm_rot_r	elbow_flex_r	pro_sup_r	wrist_flex_r	wrist_dev_r	arm_flex_l	arm_add_l	arm_rot_l	elbow_flex_l	pro_sup_l	wrist_flex_l	wrist_dev_l
      0.00000000	      3.32825498	     -4.22669129	     -0.17698157	     -1.06823971	      0.94432124	     -0.25802683	     21.97737814	      4.21180178	    -10.71524077	     16.01407912	     -1.77787337	      0.27949841	      0.01415203	      2.69837323	     -9.34831883	    -19.77128737	     -4.36527445	      1.22017105	     21.31824476	      2.57761284	      0.37207356	      8.67906698	     -3.59698723	     -9.34831883	    -14.76233352	      6.51512719	      0.06010685	    -10.85541499	    -10.17317225	    -11.15439173	     24.48529671	     90.00000001	      0.00000000	      0.00000000	     12.62996774	    -10.87725235	     16.03945428	     45.64003185	     90.00000001	      0.00000000	      0.00000000
      0.01000000	      3.47221190	     -4.60534190	     -0.21631036	     -1.05229272	      0.94494908	     -0.25689019	     21.89977823	      4.81478094	    -10.07173976	     17.93707637	     -1.98360802	      0.31306104	     -0.39121404	      2.09571601	     -9.27039162	    -19.07444754	     -4.93937686	      0.80175015	     24.48235193	      2.71401070	      0.42729765	      6.13936614	     -4.52038780	     -9.27039162	    -14.86019749	      7.13350136	      0.28142754	    -10.75544739	    -10.22584193	    -11.36764217	     24.27229024	     90.00000001	      0.00000000	      0.00000000	     12.44786435	    -10.30843645	     15.11612969	     45.21695441	     90.00000001	      0.00000000	      0.00000000
      0.02000000	      3.57582177	     -5.03415357	     -0.28703585	     -1.03663746	      0.94599568	     -0.25556471	     21.55866413	      5.55575712	     -8.46893791	     19.35374831	     -1.87601233	      0.33778663	     -1.16429728	     -0.10318576	     -9.12991797	    -18.05463585	     -5.60078148	      0.16884310	     27.95581141	      2.77006143	      0.48792095	      3.30694701	     -5.41285646	     -9.12991797	    -14.96046370	      7.77509489	      0.56975660	    -10.55545371	    -10.20325258	    -11.91946665	     24.04949774	     90.00000001	      0.00000000	      0.00000000	     12.21047608	     -9.71848770	     14.04148410	     44.83878983	     90.00000001	      0.00000000	      0.00000000
      0.03000000	      3.77646835	     -5.59732764	     -0.28311265	     -1.02092063	      0.94746647	     -0.25410242	     21.03722719	      6.42978498	     -7.58029648	     20.61880165	     -1.94146347	      0.35986598	     -1.45167848	     -1.10402107	     -9.08047380	    -16.96094735	     -6.51174726	     -0.54292947	     31.53412807	      2.82286563	      0.55037436	      0.29306230	     -6.43709498	     -9.08047380	    -15.15795864	      8.53603000	      0.87392422	    -10.42877464	    -10.19959169	    -12.20657110	     23.99009426	     90.00000001	      0.00000000	      0.00000000	     11.90933446	     -9.12627501	     12.89820519	     44.52607513	     90.00000001	      0.00000000	      0.00000000
      0.04000000	      3.84230330	     -6.06297100	     -0.34760955	     -1.00578914	      0.94910906	     -0.25268576	     20.39912873	      7.20766538	     -5.76355582	     21.43014480	     -1.56097588	      0.37402659	     -2.06237258	     -3.94736429	     -8.92720780	    -15.43640000	     -7.29783363	     -1.48253427	     35.33029870	      2.63379640	      0.61663004	     -2.64636413	     -7.34537103	     -8.92720780	    -15.27865455	      9.17376127	      1.22951793	    -10.21184955	    -10.17742518	    -12.62434319	     23.96142000	     90.00000001	      0.00000000	      0.00000000	     11.60088792	     -8.56578903	     11.80973955	     44.22833217	     90.00000001	      0.00000000	      0.00000000
